<?xml version="1.0" ?><svg enable-background="new 0 0 512 512" id="Layer_1" version="1.1" viewBox="0 0 512 512" xml:space="preserve" xmlns="http://www.w3.org/2000/svg" xmlns:xlink="http://www.w3.org/1999/xlink"><g><g><linearGradient gradientUnits="userSpaceOnUse" id="SVGID_1_" x1="-0.0000027" x2="512" y1="256" y2="256"><stop offset="0" style="stop-color:#E24263"/><stop offset="1" style="stop-color:#DD1E47"/></linearGradient><circle cx="256" cy="256" fill="url(#SVGID_1_)" r="256"/><linearGradient gradientUnits="userSpaceOnUse" id="SVGID_2_" x1="42.6666641" x2="469.3333435" y1="256.0005188" y2="256.0005188"><stop offset="0" style="stop-color:#DD1E47"/><stop offset="1" style="stop-color:#E24263"/></linearGradient><path d="M256,469.3338623c-117.6314697,0-213.3333435-95.7023926-213.3333435-213.3333435    c0-117.6314545,95.7018661-213.333313,213.3333435-213.333313c117.636261,0,213.3333435,95.7018661,213.3333435,213.333313    C469.3333435,373.6314697,373.636261,469.3338623,256,469.3338623z" fill="url(#SVGID_2_)"/></g><g><path d="M337.2778625,262.1578674c-6.2399902,6.2890625-14.8874512,10.1903992-24.4288025,10.1903992    c-9.5359802,0-18.1834717-3.9013367-24.4237366-10.1903992c-6.2404175,6.2890625-14.8874512,10.1903992-24.4239502,10.1903992    c-9.5410004,0-18.1884613-3.9013367-24.4284668-10.1903992c-6.2404785,6.2890625-14.8829346,10.1903992-24.4239502,10.1903992    s-18.1834564-3.9013367-24.4234619-10.1903992c-6.2406921,6.2890625-14.8881683,10.1903992-24.4289551,10.1903992    c-1.2346802,0-2.4549408-0.0853271-3.6538696-0.210144V384h30.3237762v-77.2986755h57.7409668V384h114.6499176V272.1333313    c-1.2042542,0.12854-2.4234619,0.2149353-3.6554565,0.2149353    C352.1605225,272.3482666,343.5178528,268.4469299,337.2778625,262.1578674z M336.6117249,346.5791931h-58.1558838v-39.8778687    h58.1558838V346.5791931z" opacity="0.3"/><path d="M381.1989441,228.4677277l-35.7808228-62.6586609h-38.6319885V144H221.213913v21.8090668h-38.6325836    l-35.7802582,62.6586609c-7.2853394,13.9754791,0.9919891,31.8981476,16.6485291,33.715744    c0.9344025,0.1087952,1.8847961,0.1647949,2.848526,0.1647949c13.4896088,0,24.4253387-10.9365387,24.4253387-24.4261322    c0,13.4895935,10.9355164,24.4261322,24.4254913,24.4261322s24.4254608-10.9365387,24.4254608-24.4261322    c0,13.4895935,10.9355011,24.4261322,24.4255219,24.4261322c13.4899902,0,24.4253845-10.9365387,24.4253845-24.4261322    c0,13.4895935,10.9362793,24.4261322,24.425354,24.4261322c13.4901123,0,24.4255981-10.9365387,24.4255981-24.4261322    c0,13.4895935,10.9360046,24.4261322,24.4255981,24.4261322c0.9631958,0,1.9141235-0.0559998,2.8485413-0.1647949    C380.2069397,260.3658752,388.4848022,242.4432068,381.1989441,228.4677277z" opacity="0.3"/></g><g><path d="M329.2778625,254.1578674c-6.2399902,6.2890625-14.8874512,10.1903992-24.4288025,10.1903992    c-9.5359802,0-18.1837158-3.9013367-24.4237366-10.1903992c-6.2404175,6.2890625-14.8874512,10.1903992-24.4239502,10.1903992    c-9.5410004,0-18.1884613-3.9013367-24.4284668-10.1903992c-6.2404785,6.2890625-14.8829346,10.1903992-24.4239502,10.1903992    s-18.1834564-3.9013367-24.4236298-10.1903992c-6.2405243,6.2890625-14.8880005,10.1903992-24.4287872,10.1903992    c-1.2346802,0-2.4549408-0.0853271-3.6538696-0.210144V376h30.3237305v-77.2986755h57.7409973V376h114.6499329V264.1333313    c-1.2042542,0.12854-2.4234619,0.2149353-3.6554565,0.2149353    C344.1605225,264.3482666,335.5178528,260.4469299,329.2778625,254.1578674z M328.6117249,338.5791931h-58.1558838v-39.8778687    h58.1558838V338.5791931z" fill="#FFFFFF"/><path d="M373.1989441,220.4677277l-35.7808228-62.6586609h-38.6319885V136H213.213913v21.8090668h-38.6325836    l-35.7802582,62.6586609c-7.2853394,13.9754791,0.9919891,31.8981323,16.6485291,33.715744    c0.9344025,0.1087952,1.8847961,0.1647949,2.848526,0.1647949c13.4896088,0,24.4256134-10.9365387,24.4256134-24.4261322    c0,13.4895935,10.9352417,24.4261322,24.4252167,24.4261322s24.4254456-10.9365387,24.4254456-24.4261322    c0,13.4895935,10.9355469,24.4261322,24.4255524,24.4261322c13.489975,0,24.4253693-10.9365387,24.4253693-24.4261322    c0,13.4895935,10.9360046,24.4261322,24.425354,24.4261322c13.4901123,0,24.4255981-10.9365387,24.4255981-24.4261322    c0,13.4895935,10.9360046,24.4261322,24.4255981,24.4261322c0.9631958,0,1.9141235-0.0559998,2.8485413-0.1647949    C372.2069397,252.36586,380.4848022,234.4432068,373.1989441,220.4677277z" fill="#FFFFFF"/></g></g></svg>